<svg width="1200" height="800" viewBox="0 0 1200 800" fill="none" xmlns="http://www.w3.org/2000/svg">
  <defs>
    <linearGradient id="bg" x1="180" y1="40" x2="1080" y2="760" gradientUnits="userSpaceOnUse">
      <stop stop-color="#FFE2A6"/>
      <stop offset="0.42" stop-color="#DDB3EA"/>
      <stop offset="1" stop-color="#A337E9"/>
    </linearGradient>
    <linearGradient id="waveA" x1="80" y1="540" x2="980" y2="680" gradientUnits="userSpaceOnUse">
      <stop stop-color="#F58A2E"/>
      <stop offset="1" stop-color="#E06F00"/>
    </linearGradient>
    <linearGradient id="waveB" x1="230" y1="620" x2="1120" y2="780" gradientUnits="userSpaceOnUse">
      <stop stop-color="#08B8FF"/>
      <stop offset="1" stop-color="#5557FF"/>
    </linearGradient>
    <radialGradient id="glow" cx="0" cy="0" r="1" gradientUnits="userSpaceOnUse" gradientTransform="translate(760 310) rotate(20) scale(360 300)">
      <stop stop-color="#F8E8FF" stop-opacity="0.9"/>
      <stop offset="1" stop-color="#F8E8FF" stop-opacity="0"/>
    </radialGradient>
  </defs>

  <rect width="1200" height="800" rx="32" fill="url(#bg)"/>
  <rect width="1200" height="800" rx="32" fill="url(#glow)"/>

  <path d="M0 598C123 537 274 523 444 572C607 620 749 704 904 695C1031 688 1124 642 1200 618V800H0V598Z" fill="url(#waveA)"/>
  <path d="M0 692C126 636 283 621 428 661C573 701 684 784 851 790C1008 796 1092 744 1200 710V800H0V692Z" fill="url(#waveB)"/>
</svg>
